<svg width="840" height="363" viewBox="0 0 840 363" fill="none" xmlns="http://www.w3.org/2000/svg">
<g clip-path="url(#clip0_1_446)">
<path d="M840 318.5L839.77 322.623L839.081 326.72L837.953 330.789L836.375 334.841L834.348 338.88L831.862 342.9L828.348 347.621L824.224 352.302L819.481 356.943L814.089 361.557L808.028 366.145L801.568 370.531L794.498 374.864L786.8 379.148L778.452 383.383L769.436 387.573L760.2 391.518L750.354 395.382L739.89 399.175L728.777 402.892L716.985 406.534L705.072 409.929L692.731 413.178L679.95 416.288L666.72 419.26L653.02 422.08L639.261 424.686L625.162 427.136L610.714 429.425L595.906 431.554L580.729 433.522L565.552 435.285L550.135 436.873L534.458 438.288L518.522 439.524L502.317 440.586L486.161 441.447L469.845 442.121L453.39 442.607L436.775 442.897L420 443L403.225 442.897L386.61 442.607L370.155 442.121L353.839 441.447L337.683 440.586L321.478 439.524L305.542 438.288L289.865 436.873L274.448 435.285L259.271 433.522L244.094 431.554L229.286 429.425L214.838 427.136L200.739 424.686L186.98 422.08L173.28 419.26L160.05 416.288L147.269 413.178L134.928 409.929L123.015 406.534L111.223 402.892L100.11 399.175L89.6455 395.382L79.8003 391.518L70.5642 387.573L61.5477 383.383L53.2002 379.148L45.5018 374.864L38.4324 370.531L31.972 366.145L25.9111 361.557L20.5192 356.943L15.7763 352.302L11.6525 347.621L8.13779 342.9L5.65153 338.88L3.62456 334.841L2.04693 330.789L0.91862 326.72L0.229659 322.623L0 318.5L0.229659 314.377L0.91862 310.28L2.04693 306.211L3.62456 302.159L5.65153 298.12L8.13779 294.1L11.6525 289.379L15.7763 284.698L20.5192 280.057L25.9111 275.443L31.972 270.855L38.4324 266.469L45.5018 262.136L53.2002 257.852L61.5477 253.617L70.5642 249.427L79.8003 245.482L89.6455 241.618L100.11 237.825L111.223 234.108L123.015 230.466L134.928 227.071L147.269 223.822L160.05 220.712L173.28 217.74L186.98 214.92L200.739 212.314L214.838 209.864L229.286 207.575L244.094 205.446L259.271 203.478L274.448 201.715L289.865 200.127L305.542 198.712L321.478 197.476L337.683 196.414L353.839 195.553L370.155 194.879L386.61 194.393L403.225 194.103L420 194L436.775 194.103L453.39 194.393L469.845 194.879L486.161 195.553L502.317 196.414L518.522 197.476L534.458 198.712L550.135 200.127L565.552 201.715L580.729 203.478L595.906 205.446L610.714 207.575L625.162 209.864L639.261 212.314L653.02 214.92L666.72 217.74L679.95 220.712L692.731 223.822L705.072 227.071L716.985 230.466L728.777 234.108L739.89 237.825L750.354 241.618L760.2 245.482L769.436 249.427L778.452 253.617L786.8 257.852L794.498 262.136L801.568 266.469L808.028 270.855L814.089 275.443L819.481 280.057L824.224 284.698L828.348 289.379L831.862 294.1L834.348 298.12L836.375 302.159L837.953 306.211L839.081 310.28L839.77 314.377L840 318.5Z" fill="url(#paint0_radial_1_446)"/>
<path d="M138.193 291H148.557V345.67L148.358 347.12L147.858 348.36L147.04 349.44L145.991 350.28L144.783 350.8L143.375 351L141.967 350.8L140.769 350.28L139.711 349.44L138.902 348.36L138.393 347.12L138.193 345.67V291Z" fill="#3F78D6"/>
<path fill-rule="evenodd" clip-rule="evenodd" d="M138.193 261L162.387 324.33L138.193 341V261Z" fill="url(#paint1_linear_1_446)"/>
<path fill-rule="evenodd" clip-rule="evenodd" d="M138.193 261L117.454 331L138.193 341V261Z" fill="url(#paint2_linear_1_446)"/>
<path d="M714.558 249H722.546V291.82L722.226 293.46L721.378 294.78L720.11 295.67L718.552 296L716.994 295.67L715.726 294.78L714.877 293.46L714.558 291.82V249Z" fill="#3F78D6"/>
<path fill-rule="evenodd" clip-rule="evenodd" d="M714.558 226L733.529 275.08L714.558 288V226Z" fill="url(#paint3_linear_1_446)"/>
<path fill-rule="evenodd" clip-rule="evenodd" d="M714.558 226L698.582 280.25L714.558 288V226Z" fill="url(#paint4_linear_1_446)"/>
<path d="M189.346 217H197.334V258L197.014 259.57L196.166 260.83L194.908 261.68L193.34 262L191.772 261.68L190.514 260.83L189.665 259.57L189.346 258V217Z" fill="#3F78D6"/>
<path fill-rule="evenodd" clip-rule="evenodd" d="M189.346 194L207.319 241.5L189.346 254V194Z" fill="url(#paint5_linear_1_446)"/>
<path fill-rule="evenodd" clip-rule="evenodd" d="M189.346 194L173.37 246.5L189.346 254V194Z" fill="url(#paint6_linear_1_446)"/>
<path fill-rule="evenodd" clip-rule="evenodd" d="M315.357 13.01H487.439L490.694 13.31L493.67 14.13L496.425 15.46L498.922 17.24L501.038 19.37L502.816 21.89L504.124 24.67L504.943 27.67L505.242 30.94V252.08L504.943 255.35L504.124 258.35L502.816 261.13L501.038 263.65L498.922 265.78L496.425 267.56L493.67 268.89L490.694 269.71L487.439 270.01H315.357L312.102 269.71L309.126 268.89L306.37 267.56L303.874 265.78L301.757 263.65L299.98 261.13L298.672 258.35L297.853 255.35L297.554 252.08V30.94L297.853 27.67L298.672 24.67L299.98 21.89L301.757 19.37L303.874 17.24L306.37 15.46L309.126 14.13L312.102 13.31L315.357 13.01Z" fill="#A2D2FE"/>
<path fill-rule="evenodd" clip-rule="evenodd" d="M315.357 13.01H487.439L490.694 13.31L493.67 14.13L496.425 15.46L498.922 17.24L501.038 19.37L502.816 21.89L504.124 24.67L504.943 27.67L505.242 30.94V252.08L504.943 255.35L504.124 258.35L502.816 261.13L501.038 263.65L498.922 265.78L496.425 267.56L493.67 268.89L490.694 269.71L487.439 270.01H315.357L312.102 269.71L309.126 268.89L306.37 267.56L303.874 265.78L301.757 263.65L299.98 261.13L298.672 258.35L297.853 255.35L297.554 252.08V30.94L297.853 27.67L298.672 24.67L299.98 21.89L301.757 19.37L303.874 17.24L306.37 15.46L309.126 14.13L312.102 13.31L315.357 13.01Z" fill="url(#paint7_linear_1_446)"/>
<path fill-rule="evenodd" clip-rule="evenodd" d="M461.358 75.92H372.172L370.554 75.69L369.166 75.11L367.968 74.17L367.029 72.97L366.45 71.58L366.221 69.96L366.45 68.35L367.029 66.96L367.968 65.75L369.166 64.82L370.554 64.24L372.172 64.01H461.358L462.965 64.24L464.353 64.82L465.562 65.75L466.49 66.96L467.069 68.35L467.299 69.96L467.069 71.58L466.49 72.97L465.562 74.17L464.353 75.11L462.965 75.69L461.358 75.92ZM372.172 141.41H395.956L397.564 141.63L398.951 142.21L400.16 143.15L401.088 144.36L401.667 145.74L401.897 147.36L401.667 148.98L401.088 150.36L400.16 151.57L398.951 152.51L397.564 153.08L395.956 153.31H372.172L370.554 153.08L369.166 152.5L367.968 151.57L367.029 150.36L366.45 148.98L366.221 147.36L366.45 145.74L367.029 144.36L367.968 143.15L369.166 142.21L370.554 141.63L372.172 141.41ZM351.363 192.01H342.436L340.829 191.78L339.441 191.2L338.233 190.27L337.304 189.06L336.725 187.67L336.495 186.06L336.725 184.44L337.304 183.05L338.233 181.85L339.441 180.91L340.829 180.33L342.436 180.1H351.363L352.97 180.33L354.358 180.91L355.567 181.85L356.495 183.05L357.074 184.44L357.304 186.06L357.074 187.67L356.495 189.06L355.567 190.27L354.358 191.2L352.97 191.78L351.363 192.01ZM351.363 153.31H342.436L340.829 153.08L339.441 152.5L338.233 151.57L337.304 150.36L336.725 148.98L336.495 147.36L336.725 145.74L337.304 144.36L338.233 143.15L339.441 142.21L340.829 141.63L342.436 141.41H351.363L352.97 141.63L354.358 142.21L355.567 143.15L356.495 144.36L357.074 145.74L357.304 147.36L357.074 148.98L356.495 150.36L355.567 151.57L354.358 152.51L352.97 153.08L351.363 153.31ZM351.363 114.61H342.436L340.829 114.39L339.441 113.81L338.233 112.87L337.304 111.66L336.725 110.28L336.495 108.66L336.725 107.04L337.304 105.66L338.233 104.45L339.441 103.52L340.829 102.94L342.436 102.71H351.363L352.97 102.94L354.358 103.51L355.567 104.45L356.495 105.66L357.074 107.04L357.304 108.66L357.074 110.28L356.495 111.66L355.567 112.87L354.358 113.81L352.97 114.39L351.363 114.61ZM351.363 75.92H342.436L340.829 75.69L339.441 75.11L338.233 74.17L337.304 72.97L336.725 71.58L336.495 69.96L336.725 68.35L337.304 66.96L338.233 65.75L339.441 64.82L340.829 64.24L342.436 64.01H351.363L352.97 64.24L354.358 64.82L355.567 65.75L356.495 66.96L357.074 68.35L357.304 69.96L357.074 71.58L356.495 72.97L355.567 74.17L354.358 75.11L352.97 75.69L351.363 75.92ZM372.172 180.1H395.956L397.564 180.33L398.951 180.91L400.16 181.85L401.088 183.05L401.667 184.44L401.897 186.06L401.667 187.67L401.088 189.06L400.16 190.27L398.951 191.2L397.564 191.78L395.956 192.01H372.172L370.554 191.78L369.166 191.2L367.968 190.27L367.029 189.06L366.45 187.67L366.221 186.06L366.45 184.44L367.029 183.05L367.968 181.85L369.166 180.91L370.554 180.33L372.172 180.1ZM366.221 108.66L366.45 107.04L367.029 105.66L367.968 104.45L369.166 103.52L370.554 102.94L372.172 102.71H458.382L460 102.94L461.378 103.52L462.586 104.45L463.525 105.66L464.094 107.04L464.323 108.66L464.094 110.28L463.525 111.66L462.586 112.87L461.378 113.81L460 114.39L458.382 114.61H372.172L370.554 114.39L369.166 113.81L367.968 112.87L367.029 111.66L366.45 110.28L366.221 108.66Z" fill="#F9FAFF"/>
<path d="M461.358 75.92H372.172L370.554 75.69L369.166 75.11L367.968 74.17L367.029 72.97L366.45 71.58L366.221 69.96L366.45 68.35L367.029 66.96L367.968 65.75L369.166 64.82L370.554 64.24L372.172 64.01H461.358L462.965 64.24L464.353 64.82L465.562 65.75L466.49 66.96L467.069 68.35L467.299 69.96L467.069 71.58L466.49 72.97L465.562 74.17L464.353 75.11L462.965 75.69L461.358 75.92ZM372.172 141.41H395.956L397.564 141.63L398.951 142.21L400.16 143.15L401.088 144.36L401.667 145.74L401.897 147.36L401.667 148.98L401.088 150.36L400.16 151.57L398.951 152.51L397.564 153.08L395.956 153.31H372.172L370.554 153.08L369.166 152.5L367.968 151.57L367.029 150.36L366.45 148.98L366.221 147.36L366.45 145.74L367.029 144.36L367.968 143.15L369.166 142.21L370.554 141.63L372.172 141.41ZM351.363 192.01H342.436L340.829 191.78L339.441 191.2L338.233 190.27L337.304 189.06L336.725 187.67L336.495 186.06L336.725 184.44L337.304 183.05L338.233 181.85L339.441 180.91L340.829 180.33L342.436 180.1H351.363L352.97 180.33L354.358 180.91L355.567 181.85L356.495 183.05L357.074 184.44L357.304 186.06L357.074 187.67L356.495 189.06L355.567 190.27L354.358 191.2L352.97 191.78L351.363 192.01ZM351.363 153.31H342.436L340.829 153.08L339.441 152.5L338.233 151.57L337.304 150.36L336.725 148.98L336.495 147.36L336.725 145.74L337.304 144.36L338.233 143.15L339.441 142.21L340.829 141.63L342.436 141.41H351.363L352.97 141.63L354.358 142.21L355.567 143.15L356.495 144.36L357.074 145.74L357.304 147.36L357.074 148.98L356.495 150.36L355.567 151.57L354.358 152.51L352.97 153.08L351.363 153.31ZM351.363 114.61H342.436L340.829 114.39L339.441 113.81L338.233 112.87L337.304 111.66L336.725 110.28L336.495 108.66L336.725 107.04L337.304 105.66L338.233 104.45L339.441 103.52L340.829 102.94L342.436 102.71H351.363L352.97 102.94L354.358 103.51L355.567 104.45L356.495 105.66L357.074 107.04L357.304 108.66L357.074 110.28L356.495 111.66L355.567 112.87L354.358 113.81L352.97 114.39L351.363 114.61ZM351.363 75.92H342.436L340.829 75.69L339.441 75.11L338.233 74.17L337.304 72.97L336.725 71.58L336.495 69.96L336.725 68.35L337.304 66.96L338.233 65.75L339.441 64.82L340.829 64.24L342.436 64.01H351.363L352.97 64.24L354.358 64.82L355.567 65.75L356.495 66.96L357.074 68.35L357.304 69.96L357.074 71.58L356.495 72.97L355.567 74.17L354.358 75.11L352.97 75.69L351.363 75.92ZM372.172 180.1H395.956L397.564 180.33L398.951 180.91L400.16 181.85L401.088 183.05L401.667 184.44L401.897 186.06L401.667 187.67L401.088 189.06L400.16 190.27L398.951 191.2L397.564 191.78L395.956 192.01H372.172L370.554 191.78L369.166 191.2L367.968 190.27L367.029 189.06L366.45 187.67L366.221 186.06L366.45 184.44L367.029 183.05L367.968 181.85L369.166 180.91L370.554 180.33L372.172 180.1ZM366.221 108.66L366.45 107.04L367.029 105.66L367.968 104.45L369.166 103.52L370.554 102.94L372.172 102.71H458.382L460 102.94L461.378 103.52L462.586 104.45L463.525 105.66L464.094 107.04L464.323 108.66L464.094 110.28L463.525 111.66L462.586 112.87L461.378 113.81L460 114.39L458.382 114.61H372.172L370.554 114.39L369.166 113.81L367.968 112.87L367.029 111.66L366.45 110.28L366.221 108.66Z" fill="white"/>
<path fill-rule="evenodd" clip-rule="evenodd" d="M518.222 204.69L530.594 192.01L561.158 223.33L548.787 236.01L518.222 204.69Z" fill="#6A9BED"/>
<path fill-rule="evenodd" clip-rule="evenodd" d="M536.645 221.55L547.718 210.46L549.516 209.09L551.503 208.28L553.62 208.01L555.736 208.28L557.733 209.09L559.531 210.46L598.652 245.21L600.02 247.01L600.829 249L601.098 251.12L600.829 253.24L600.02 255.24L598.652 257.04L583.145 272.56L581.358 273.93L579.361 274.74L577.244 275.01L575.127 274.74L573.14 273.93L571.343 272.56L536.645 233.38L535.277 231.58L534.468 229.59L534.199 227.46L534.468 225.34L535.277 223.35L536.645 221.55Z" fill="#999999"/>
<path d="M536.645 221.55L547.718 210.46L549.516 209.09L551.503 208.28L553.62 208.01L555.736 208.28L557.733 209.09L559.531 210.46L598.652 245.21L600.02 247.01L600.829 249L601.098 251.12L600.829 253.24L600.02 255.24L598.652 257.04L583.145 272.56L581.358 273.93L579.361 274.74L577.244 275.01L575.127 274.74L573.14 273.93L571.343 272.56L536.645 233.38L535.277 231.58L534.468 229.59L534.199 227.46L534.468 225.34L535.277 223.35L536.645 221.55Z" fill="url(#paint8_linear_1_446)"/>
<path d="M536.645 221.55L547.718 210.46L549.516 209.09L551.503 208.28L553.62 208.01L555.736 208.28L557.733 209.09L559.531 210.46L598.652 245.21L600.02 247.01L600.829 249L601.098 251.12L600.829 253.24L600.02 255.24L598.652 257.04L583.145 272.56L581.358 273.93L579.361 274.74L577.244 275.01L575.127 274.74L573.14 273.93L571.343 272.56L536.645 233.38L535.277 231.58L534.468 229.59L534.199 227.46L534.468 225.34L535.277 223.35L536.645 221.55Z" fill="url(#paint9_linear_1_446)"/>
<path fill-rule="evenodd" clip-rule="evenodd" d="M487.768 224.01L481.837 223.76L476.116 223.06L470.574 221.93L465.202 220.36L459.94 218.37L454.937 216.02L450.165 213.3L445.601 210.21L441.288 206.78L437.284 203.07L433.579 199.06L430.155 194.74L427.069 190.17L424.353 185.39L422.007 180.38L420.02 175.11L418.452 169.73L417.324 164.18L416.625 158.45L416.375 152.51L416.625 146.57L417.324 140.84L418.452 135.29L420.02 129.91L422.007 124.64L424.353 119.63L427.069 114.85L430.155 110.28L433.579 105.96L437.284 101.95L441.288 98.24L445.601 94.81L450.165 91.72L454.937 89L459.94 86.65L465.202 84.66L470.574 83.09L476.116 81.96L481.837 81.26L487.768 81.01L493.699 81.26L499.421 81.96L504.962 83.09L510.334 84.66L515.596 86.65L520.599 89L525.372 91.72L529.935 94.81L534.248 98.24L538.252 101.95L541.957 105.96L545.382 110.28L548.467 114.85L551.183 119.63L553.529 124.64L555.526 129.91L557.084 135.29L558.212 140.84L558.911 146.57L559.161 152.51L558.911 158.45L558.212 164.18L557.084 169.73L555.517 175.11L553.529 180.38L551.183 185.39L548.467 190.17L545.382 194.74L541.957 199.06L538.252 203.07L534.248 206.78L529.935 210.21L525.372 213.3L520.599 216.02L515.596 218.37L510.334 220.36L504.962 221.93L499.421 223.06L493.699 223.76L487.768 224.01ZM487.768 95.91L482.516 96.19L477.504 96.95L472.701 98.18L468.088 99.89L463.634 102.04L459.481 104.56L455.616 107.46L452.012 110.74L448.737 114.35L445.841 118.22L443.325 122.38L441.168 126.84L439.471 131.46L438.242 136.27L437.484 141.29L437.194 146.55L437.484 151.81L438.242 156.83L439.471 161.64L441.168 166.27L443.325 170.73L445.841 174.88L448.737 178.76L452.012 182.36L455.616 185.64L459.481 188.54L463.634 191.06L468.088 193.22L472.701 194.92L477.504 196.15L482.516 196.92L487.768 197.2L493.02 196.92L498.033 196.15L502.836 194.92L507.449 193.22L511.902 191.06L516.056 188.54L519.92 185.64L523.525 182.36L526.8 178.76L529.695 174.88L532.211 170.73L534.368 166.27L536.066 161.64L537.294 156.83L538.053 151.81L538.342 146.55L538.053 141.29L537.294 136.27L536.066 131.46L534.368 126.84L532.211 122.38L529.695 118.22L526.8 114.35L523.525 110.74L519.92 107.46L516.056 104.56L511.902 102.04L507.449 99.89L502.836 98.18L498.033 96.95L493.02 96.19L487.768 95.91Z" fill="#E5E5E5"/>
<path d="M487.768 224.01L481.837 223.76L476.116 223.06L470.574 221.93L465.202 220.36L459.94 218.37L454.937 216.02L450.165 213.3L445.601 210.21L441.288 206.78L437.284 203.07L433.579 199.06L430.155 194.74L427.069 190.17L424.353 185.39L422.007 180.38L420.02 175.11L418.452 169.73L417.324 164.18L416.625 158.45L416.375 152.51L416.625 146.57L417.324 140.84L418.452 135.29L420.02 129.91L422.007 124.64L424.353 119.63L427.069 114.85L430.155 110.28L433.579 105.96L437.284 101.95L441.288 98.24L445.601 94.81L450.165 91.72L454.937 89L459.94 86.65L465.202 84.66L470.574 83.09L476.116 81.96L481.837 81.26L487.768 81.01L493.699 81.26L499.421 81.96L504.962 83.09L510.334 84.66L515.596 86.65L520.599 89L525.372 91.72L529.935 94.81L534.248 98.24L538.252 101.95L541.957 105.96L545.382 110.28L548.467 114.85L551.183 119.63L553.529 124.64L555.526 129.91L557.084 135.29L558.212 140.84L558.911 146.57L559.161 152.51L558.911 158.45L558.212 164.18L557.084 169.73L555.517 175.11L553.529 180.38L551.183 185.39L548.467 190.17L545.382 194.74L541.957 199.06L538.252 203.07L534.248 206.78L529.935 210.21L525.372 213.3L520.599 216.02L515.596 218.37L510.334 220.36L504.962 221.93L499.421 223.06L493.699 223.76L487.768 224.01ZM487.768 95.91L482.516 96.19L477.504 96.95L472.701 98.18L468.088 99.89L463.634 102.04L459.481 104.56L455.616 107.46L452.012 110.74L448.737 114.35L445.841 118.22L443.325 122.38L441.168 126.84L439.471 131.46L438.242 136.27L437.484 141.29L437.194 146.55L437.484 151.81L438.242 156.83L439.471 161.64L441.168 166.27L443.325 170.73L445.841 174.88L448.737 178.76L452.012 182.36L455.616 185.64L459.481 188.54L463.634 191.06L468.088 193.22L472.701 194.92L477.504 196.15L482.516 196.92L487.768 197.2L493.02 196.92L498.033 196.15L502.836 194.92L507.449 193.22L511.902 191.06L516.056 188.54L519.92 185.64L523.525 182.36L526.8 178.76L529.695 174.88L532.211 170.73L534.368 166.27L536.066 161.64L537.294 156.83L538.053 151.81L538.342 146.55L538.053 141.29L537.294 136.27L536.066 131.46L534.368 126.84L532.211 122.38L529.695 118.22L526.8 114.35L523.525 110.74L519.92 107.46L516.056 104.56L511.902 102.04L507.449 99.89L502.836 98.18L498.033 96.95L493.02 96.19L487.768 95.91Z" fill="url(#paint10_linear_1_446)"/>
<path fill-rule="evenodd" clip-rule="evenodd" d="M487.768 219.01L481.837 218.76L476.116 218.06L470.574 216.93L465.202 215.36L459.94 213.37L454.937 211.02L450.165 208.3L445.601 205.21L441.288 201.78L437.284 198.07L433.579 194.06L430.155 189.74L427.069 185.17L424.353 180.39L422.007 175.38L420.02 170.11L418.452 164.73L417.324 159.18L416.625 153.45L416.375 147.51L416.625 141.57L417.324 135.84L418.452 130.29L420.02 124.91L422.007 119.64L424.353 114.63L427.069 109.85L430.155 105.28L433.579 100.96L437.284 96.95L441.288 93.24L445.601 89.81L450.165 86.72L454.937 84L459.94 81.65L465.202 79.66L470.574 78.09L476.116 76.96L481.837 76.26L487.768 76.01L493.699 76.26L499.421 76.96L504.962 78.09L510.334 79.66L515.596 81.65L520.599 84L525.372 86.72L529.935 89.81L534.248 93.24L538.252 96.95L541.957 100.96L545.382 105.28L548.467 109.85L551.183 114.63L553.529 119.64L555.526 124.91L557.084 130.29L558.212 135.84L558.911 141.57L559.161 147.51L558.911 153.45L558.212 159.18L557.084 164.73L555.517 170.11L553.529 175.38L551.183 180.39L548.467 185.17L545.382 189.74L541.957 194.06L538.252 198.07L534.248 201.78L529.935 205.21L525.372 208.3L520.599 211.02L515.596 213.37L510.334 215.36L504.962 216.93L499.421 218.06L493.699 218.76L487.768 219.01ZM487.768 96.86L482.516 97.15L477.504 97.91L472.701 99.14L468.088 100.84L463.634 103L459.481 105.52L455.616 108.42L452.012 111.7L448.737 115.31L445.841 119.18L443.325 123.34L441.168 127.8L439.471 132.42L438.242 137.23L437.484 142.25L437.194 147.51L437.484 152.77L438.242 157.79L439.471 162.6L441.168 167.22L443.325 171.68L445.841 175.84L448.737 179.71L452.012 183.32L455.616 186.6L459.481 189.5L463.634 192.02L468.088 194.18L472.701 195.88L477.504 197.11L482.516 197.87L487.768 198.16L493.02 197.87L498.033 197.11L502.836 195.88L507.449 194.18L511.902 192.02L516.056 189.5L519.92 186.6L523.525 183.32L526.8 179.71L529.695 175.84L532.211 171.68L534.368 167.22L536.066 162.6L537.294 157.79L538.053 152.77L538.342 147.51L538.053 142.25L537.294 137.23L536.066 132.42L534.368 127.8L532.211 123.34L529.695 119.18L526.8 115.31L523.525 111.7L519.92 108.42L516.056 105.52L511.902 103L507.449 100.84L502.836 99.14L498.033 97.91L493.02 97.15L487.768 96.86Z" fill="#E5E5E5"/>
<path fill-rule="evenodd" clip-rule="evenodd" d="M487.768 219.01L481.837 218.76L476.116 218.06L470.574 216.93L465.202 215.36L459.94 213.37L454.937 211.02L450.165 208.3L445.601 205.21L441.288 201.78L437.284 198.07L433.579 194.06L430.155 189.74L427.069 185.17L424.353 180.39L422.007 175.38L420.02 170.11L418.452 164.73L417.324 159.18L416.625 153.45L416.375 147.51L416.625 141.57L417.324 135.84L418.452 130.29L420.02 124.91L422.007 119.64L424.353 114.63L427.069 109.85L430.155 105.28L433.579 100.96L437.284 96.95L441.288 93.24L445.601 89.81L450.165 86.72L454.937 84L459.94 81.65L465.202 79.66L470.574 78.09L476.116 76.96L481.837 76.26L487.768 76.01L493.699 76.26L499.421 76.96L504.962 78.09L510.334 79.66L515.596 81.65L520.599 84L525.372 86.72L529.935 89.81L534.248 93.24L538.252 96.95L541.957 100.96L545.382 105.28L548.467 109.85L551.183 114.63L553.529 119.64L555.526 124.91L557.084 130.29L558.212 135.84L558.911 141.57L559.161 147.51L558.911 153.45L558.212 159.18L557.084 164.73L555.517 170.11L553.529 175.38L551.183 180.39L548.467 185.17L545.382 189.74L541.957 194.06L538.252 198.07L534.248 201.78L529.935 205.21L525.372 208.3L520.599 211.02L515.596 213.37L510.334 215.36L504.962 216.93L499.421 218.06L493.699 218.76L487.768 219.01ZM487.768 96.86L482.516 97.15L477.504 97.91L472.701 99.14L468.088 100.84L463.634 103L459.481 105.52L455.616 108.42L452.012 111.7L448.737 115.31L445.841 119.18L443.325 123.34L441.168 127.8L439.471 132.42L438.242 137.23L437.484 142.25L437.194 147.51L437.484 152.77L438.242 157.79L439.471 162.6L441.168 167.22L443.325 171.68L445.841 175.84L448.737 179.71L452.012 183.32L455.616 186.6L459.481 189.5L463.634 192.02L468.088 194.18L472.701 195.88L477.504 197.11L482.516 197.87L487.768 198.16L493.02 197.87L498.033 197.11L502.836 195.88L507.449 194.18L511.902 192.02L516.056 189.5L519.92 186.6L523.525 183.32L526.8 179.71L529.695 175.84L532.211 171.68L534.368 167.22L536.066 162.6L537.294 157.79L538.053 152.77L538.342 147.51L538.053 142.25L537.294 137.23L536.066 132.42L534.368 127.8L532.211 123.34L529.695 119.18L526.8 115.31L523.525 111.7L519.92 108.42L516.056 105.52L511.902 103L507.449 100.84L502.836 99.14L498.033 97.91L493.02 97.15L487.768 96.86Z" fill="url(#paint11_linear_1_446)"/>
<path fill-rule="evenodd" clip-rule="evenodd" d="M491.053 79L485.102 79.25L479.361 79.95L473.789 81.09L468.397 82.66L463.115 84.66L458.083 87.03L453.29 89.76L448.717 92.86L444.383 96.3L440.359 100.03L436.635 104.06L433.2 108.4L430.105 112.98L427.379 117.78L425.012 122.82L423.015 128.11L421.448 133.51L420.309 139.09L419.61 144.84L419.361 150.8L419.64 157.14L420.439 163.26L421.747 169.18L423.554 174.96L425.801 180.49L428.487 185.77L431.592 190.82L435.077 195.56L438.941 200.01L434.508 195.45L430.514 190.53L426.929 185.23L423.824 179.64L421.238 173.77L419.141 167.59L417.633 161.24L416.705 154.66L416.375 147.81L416.625 141.85L417.324 136.09L418.462 130.52L420.03 125.12L422.027 119.83L424.393 114.79L427.109 109.99L430.204 105.41L433.649 101.07L437.374 97.04L441.398 93.31L445.731 89.86L450.304 86.76L455.097 84.04L460.13 81.67L465.412 79.67L470.804 78.1L476.365 76.96L482.117 76.26L488.068 76.01L494.907 76.34L501.478 77.27L507.818 78.78L513.989 80.88L519.85 83.47L525.432 86.58L530.724 90.17L535.626 94.17L540.19 98.61L535.746 94.74L531.013 91.25L525.971 88.14L520.699 85.45L515.177 83.2L509.406 81.39L503.495 80.08L497.384 79.28L491.053 79Z" fill="#E6ECFF" fill-opacity="0.8"/>
<path fill-rule="evenodd" clip-rule="evenodd" d="M485.082 216.04L490.983 215.79L496.685 215.1L502.207 213.97L507.559 212.41L512.801 210.43L517.783 208.08L522.546 205.38L527.079 202.3L531.383 198.88L535.367 195.18L539.061 191.19L542.476 186.88L545.552 182.34L548.248 177.57L550.594 172.58L552.571 167.33L554.129 161.97L555.257 156.44L555.946 150.73L556.196 144.82L555.916 138.53L555.127 132.46L553.829 126.59L552.042 120.85L549.815 115.37L547.149 110.13L544.064 105.12L540.609 100.42L536.775 96.01L541.168 100.54L545.142 105.42L548.697 110.67L551.772 116.21L554.338 122.04L556.415 128.17L557.913 134.47L558.832 141L559.161 147.78L558.912 153.7L558.223 159.41L557.094 164.94L555.537 170.3L553.55 175.54L551.213 180.54L548.507 185.3L545.442 189.85L542.027 194.15L538.332 198.15L534.338 201.85L530.045 205.27L525.502 208.34L520.749 211.05L515.756 213.39L510.524 215.38L505.172 216.94L499.651 218.07L493.949 218.76L488.038 219.01L481.268 218.68L474.748 217.76L468.457 216.26L462.337 214.18L456.515 211.61L450.983 208.53L445.741 204.97L440.869 200.99L436.345 196.59L440.749 200.43L445.442 203.89L450.444 206.98L455.676 209.65L461.148 211.88L466.88 213.67L472.741 214.97L478.802 215.76L485.082 216.04Z" fill="#F6F8FF"/>
<path d="M487.768 97.01L493 97.29L498.003 98.05L502.786 99.28L507.399 100.98L511.832 103.13L515.976 105.64L519.83 108.53L523.425 111.8L526.69 115.4L529.576 119.26L532.082 123.41L534.229 127.85L535.926 132.47L537.154 137.26L537.913 142.27L538.193 147.51L537.913 152.75L537.154 157.76L535.926 162.55L534.229 167.17L532.082 171.61L529.576 175.76L526.69 179.62L523.425 183.22L519.83 186.49L515.976 189.38L511.832 191.89L507.399 194.04L502.786 195.74L498.003 196.97L493 197.73L487.768 198.01L482.536 197.73L477.534 196.97L472.751 195.74L468.138 194.04L463.704 191.89L459.561 189.38L455.706 186.49L452.112 183.22L448.847 179.62L445.961 175.76L443.455 171.61L441.308 167.17L439.611 162.55L438.382 157.76L437.624 152.75L437.344 147.51L437.624 142.27L438.382 137.26L439.611 132.47L441.308 127.85L443.455 123.41L445.961 119.26L448.847 115.4L452.112 111.8L455.706 108.53L459.561 105.64L463.704 103.13L468.138 100.98L472.751 99.28L477.534 98.05L482.536 97.29L487.768 97.01Z" fill="url(#paint12_linear_1_446)"/>
<path d="M615.706 35.5L615.367 40.38L614.438 44.97L612.921 49.32L610.854 53.44L608.327 57.19L605.322 60.6L601.917 63.61L598.173 66.14L594.059 68.21L589.715 69.73L585.132 70.66L580.26 71L575.387 70.66L570.804 69.73L566.46 68.21L562.346 66.14L558.602 63.61L555.197 60.6L552.192 57.19L549.665 53.44L547.599 49.32L546.081 44.97L545.152 40.38L544.813 35.5L545.152 30.62L546.081 26.03L547.599 21.68L549.665 17.56L552.192 13.81L555.197 10.4L558.602 7.39001L562.346 4.86002L566.46 2.79001L570.804 1.27002L575.387 0.339996L580.26 0L585.132 0.339996L589.715 1.27002L594.059 2.79001L598.173 4.86002L601.917 7.39001L605.322 10.4L608.327 13.81L610.854 17.56L612.921 21.68L614.438 26.03L615.367 30.62L615.706 35.5Z" fill="url(#paint13_radial_1_446)"/>
<path d="M274.218 174.5L273.889 178.06L273 181.32L271.562 184.34L269.625 187.08L267.309 189.4L264.573 191.34L261.557 192.78L258.302 193.67L254.748 194L251.193 193.67L247.938 192.78L244.922 191.34L242.186 189.4L239.87 187.08L237.933 184.34L236.495 181.32L235.606 178.06L235.277 174.5L235.606 170.94L236.495 167.68L237.933 164.66L239.87 161.92L242.186 159.6L244.922 157.66L247.938 156.22L251.193 155.33L254.748 155L258.302 155.33L261.557 156.22L264.573 157.66L267.309 159.6L269.625 161.92L271.562 164.66L273 167.68L273.889 170.94L274.218 174.5Z" fill="url(#paint14_radial_1_446)" fill-opacity="0.562533"/>
</g>
<defs>
<radialGradient id="paint0_radial_1_446" cx="0" cy="0" r="1" gradientUnits="userSpaceOnUse" gradientTransform="translate(420.369 202.929) rotate(90) scale(197.683 597.772)">
<stop stop-color="#0052D9" stop-opacity="0.151562"/>
<stop offset="1" stop-color="#0052D9" stop-opacity="0"/>
</radialGradient>
<linearGradient id="paint1_linear_1_446" x1="150.29" y1="261" x2="150.29" y2="341" gradientUnits="userSpaceOnUse">
<stop stop-color="#72A0E8"/>
<stop offset="0.993995" stop-color="#3981F7"/>
</linearGradient>
<linearGradient id="paint2_linear_1_446" x1="127.823" y1="261" x2="127.823" y2="341" gradientUnits="userSpaceOnUse">
<stop offset="0.0127619" stop-color="#B7D2FF"/>
<stop offset="1" stop-color="#93BBFF"/>
</linearGradient>
<linearGradient id="paint3_linear_1_446" x1="724.044" y1="226" x2="724.044" y2="288" gradientUnits="userSpaceOnUse">
<stop stop-color="#72A0E8"/>
<stop offset="0.993995" stop-color="#3981F7"/>
</linearGradient>
<linearGradient id="paint4_linear_1_446" x1="706.57" y1="226" x2="706.57" y2="288" gradientUnits="userSpaceOnUse">
<stop offset="0.0127619" stop-color="#B7D2FF"/>
<stop offset="1" stop-color="#93BBFF"/>
</linearGradient>
<linearGradient id="paint5_linear_1_446" x1="198.332" y1="194" x2="198.332" y2="254" gradientUnits="userSpaceOnUse">
<stop stop-color="#72A0E8"/>
<stop offset="0.993995" stop-color="#3981F7"/>
</linearGradient>
<linearGradient id="paint6_linear_1_446" x1="181.358" y1="194" x2="181.358" y2="254" gradientUnits="userSpaceOnUse">
<stop offset="0.0127619" stop-color="#B7D2FF"/>
<stop offset="1" stop-color="#93BBFF"/>
</linearGradient>
<linearGradient id="paint7_linear_1_446" x1="458.179" y1="170.654" x2="311.495" y2="19.6947" gradientUnits="userSpaceOnUse">
<stop stop-color="#5E9BFF"/>
<stop offset="1" stop-color="#E2EDFF"/>
</linearGradient>
<linearGradient id="paint8_linear_1_446" x1="576.376" y1="260.079" x2="533.83" y2="208.072" gradientUnits="userSpaceOnUse">
<stop stop-color="#5B7FFF"/>
<stop offset="0.99" stop-color="#92A9FD"/>
</linearGradient>
<linearGradient id="paint9_linear_1_446" x1="534.199" y1="275.01" x2="534.199" y2="208.01" gradientUnits="userSpaceOnUse">
<stop stop-color="#4D89EC"/>
<stop offset="0.986673" stop-color="#B3D0FF"/>
</linearGradient>
<linearGradient id="paint10_linear_1_446" x1="416.375" y1="224.01" x2="416.375" y2="81.01" gradientUnits="userSpaceOnUse">
<stop stop-color="#4484EF"/>
<stop offset="1" stop-color="#82B1FF"/>
</linearGradient>
<linearGradient id="paint11_linear_1_446" x1="547.364" y1="163.727" x2="426.3" y2="62.8884" gradientUnits="userSpaceOnUse">
<stop stop-color="#5E9BFF"/>
<stop offset="1" stop-color="#E2EDFF"/>
</linearGradient>
<linearGradient id="paint12_linear_1_446" x1="437.344" y1="198.01" x2="437.344" y2="97.01" gradientUnits="userSpaceOnUse">
<stop stop-color="#B3C3FF" stop-opacity="0.50196"/>
<stop offset="1" stop-color="#EDF1FF"/>
</linearGradient>
<radialGradient id="paint13_radial_1_446" cx="0" cy="0" r="1" gradientUnits="userSpaceOnUse" gradientTransform="translate(561.857 35.5) scale(46.9099 46.9803)">
<stop stop-color="#F2F7FF"/>
<stop offset="1" stop-color="#99C0FF"/>
</radialGradient>
<radialGradient id="paint14_radial_1_446" cx="0" cy="0" r="1" gradientUnits="userSpaceOnUse" gradientTransform="translate(244.639 174.5) scale(25.7674 25.8061)">
<stop stop-color="#F2F7FF"/>
<stop offset="1" stop-color="#99C0FF"/>
</radialGradient>
<clipPath id="clip0_1_446">
<rect width="840" height="363" fill="white"/>
</clipPath>
</defs>
</svg>
