<?xml version="1.0" standalone="no"?><!DOCTYPE svg PUBLIC "-//W3C//DTD SVG 1.1//EN" "http://www.w3.org/Graphics/SVG/1.1/DTD/svg11.dtd"><svg height="1024" node-id="1" sillyvg="true" template-height="1024" template-width="1024" version="1.1" viewBox="0 0 1024 1024" width="1024" xmlns="http://www.w3.org/2000/svg" xmlns:xlink="http://www.w3.org/1999/xlink"><defs node-id="85"><radialGradient cx="0.5" cy="0.024678005" fx="0.5" fy="0.024678005" gradientTransform="matrix(-0.01748041 0.99965267 -0.66306062 -0.02635406 0.52510321 -0.47449797)" gradientUnits="objectBoundingBox" id="radialGradient-1" node-id="5" r="0.70727026" spreadMethod="pad"><stop offset="0" stop-color="#0052d9" stop-opacity="0.15156181"></stop><stop offset="1" stop-color="#0052d9" stop-opacity="0"></stop></radialGradient><linearGradient gradientUnits="objectBoundingBox" id="linearGradient-2" node-id="8" spreadMethod="pad" x1="0.5" x2="0.5" y1="0" y2="1"><stop offset="0" stop-color="#72a0e8"></stop><stop offset="0.9939955" stop-color="#3981f7"></stop></linearGradient><linearGradient gradientUnits="objectBoundingBox" id="linearGradient-3" node-id="11" spreadMethod="pad" x1="0.5" x2="0.5" y1="0" y2="1"><stop offset="0.0127618965" stop-color="#b7d2ff"></stop><stop offset="1" stop-color="#93bbff"></stop></linearGradient><linearGradient gradientUnits="objectBoundingBox" id="linearGradient-4" node-id="14" spreadMethod="pad" x1="0.5" x2="0.5" y1="0" y2="1"><stop offset="0" stop-color="#72a0e8"></stop><stop offset="0.9939955" stop-color="#3981f7"></stop></linearGradient><linearGradient gradientUnits="objectBoundingBox" id="linearGradient-5" node-id="17" spreadMethod="pad" x1="0.5" x2="0.5" y1="0" y2="1"><stop offset="0.0127618965" stop-color="#b7d2ff"></stop><stop offset="1" stop-color="#93bbff"></stop></linearGradient><linearGradient gradientUnits="objectBoundingBox" id="linearGradient-6" node-id="20" spreadMethod="pad" x1="0.5" x2="0.5" y1="0" y2="1"><stop offset="0" stop-color="#72a0e8"></stop><stop offset="0.9939955" stop-color="#3981f7"></stop></linearGradient><linearGradient gradientUnits="objectBoundingBox" id="linearGradient-7" node-id="23" spreadMethod="pad" x1="0.5" x2="0.5" y1="0" y2="1"><stop offset="0.0127618965" stop-color="#b7d2ff"></stop><stop offset="1" stop-color="#93bbff"></stop></linearGradient><linearGradient gradientUnits="objectBoundingBox" id="linearGradient-8" node-id="26" spreadMethod="pad" x1="0.77339596" x2="0.21869685" y1="0.61340225" y2="-0.09300757"><stop offset="0" stop-color="#5e9bff"></stop><stop offset="1" stop-color="#e2edff"></stop></linearGradient><linearGradient gradientUnits="objectBoundingBox" id="linearGradient-9" node-id="29" spreadMethod="pad" x1="0.63044906" x2="-0.004365374" y1="0.77715" y2="0"><stop offset="0" stop-color="#5b7fff"></stop><stop offset="0.99" stop-color="#92a9fd"></stop></linearGradient><linearGradient gradientUnits="objectBoundingBox" id="linearGradient-10" node-id="32" spreadMethod="pad" x1="0" x2="0" y1="1" y2="0"><stop offset="0" stop-color="#4d89ec"></stop><stop offset="0.986673" stop-color="#b3d0ff"></stop></linearGradient><linearGradient gradientUnits="objectBoundingBox" id="linearGradient-12" node-id="36" spreadMethod="pad" x1="0" x2="0" y1="1" y2="0"><stop offset="0" stop-color="#4484ef"></stop><stop offset="1" stop-color="#82b1ff"></stop></linearGradient><linearGradient gradientUnits="objectBoundingBox" id="linearGradient-13" node-id="39" spreadMethod="pad" x1="0.91738" x2="0.070548445" y1="0.61340225" y2="-0.09300757"><stop offset="0" stop-color="#5e9bff"></stop><stop offset="1" stop-color="#e2edff"></stop></linearGradient><linearGradient gradientUnits="objectBoundingBox" id="linearGradient-14" node-id="42" spreadMethod="pad" x1="0" x2="0" y1="1" y2="0"><stop offset="0" stop-color="#b3c3ff" stop-opacity="0.50196"></stop><stop offset="1" stop-color="#edf1ff"></stop></linearGradient><radialGradient cx="0.24042307" cy="0.5" fx="0.24042307" fy="0.5" gradientUnits="objectBoundingBox" id="radialGradient-15" node-id="45" r="0.66169447" spreadMethod="pad"><stop offset="0" stop-color="#f2f7ff"></stop><stop offset="1" stop-color="#99c0ff"></stop></radialGradient></defs><g node-id="220"><g node-id="221"><path d="M 945.26 736.99 L 945.03 746.23 L 944.34 755.41 L 943.21 764.53 L 941.63 773.61 L 939.60 782.66 L 937.11 791.67 L 933.59 802.25 L 929.46 812.74 L 924.71 823.14 L 919.31 833.48 L 913.24 843.76 L 906.77 853.59 L 899.69 863.30 L 891.98 872.90 L 883.62 882.39 L 874.59 891.78 L 865.34 900.62 L 855.48 909.28 L 845.00 917.78 L 833.87 926.11 L 822.06 934.27 L 810.13 941.88 L 797.77 949.16 L 784.97 956.13 L 771.72 962.79 L 758.00 969.11 L 744.22 974.95 L 730.10 980.44 L 715.63 985.57 L 700.80 990.34 L 685.60 994.75 L 670.40 998.70 L 654.96 1002.26 L 639.26 1005.43 L 623.30 1008.20 L 607.07 1010.58 L 590.89 1012.51 L 574.55 1014.02 L 558.07 1015.11 L 541.43 1015.76 L 524.63 1015.99 L 507.83 1015.76 L 491.19 1015.11 L 474.71 1014.02 L 458.37 1012.51 L 442.19 1010.58 L 425.96 1008.20 L 410.00 1005.43 L 394.30 1002.26 L 378.86 998.70 L 363.66 994.75 L 348.46 990.34 L 333.63 985.57 L 319.16 980.44 L 305.04 974.95 L 291.26 969.11 L 277.54 962.79 L 264.29 956.13 L 251.49 949.16 L 239.13 941.88 L 227.20 934.27 L 215.39 926.11 L 204.26 917.78 L 193.78 909.28 L 183.92 900.62 L 174.67 891.78 L 165.64 882.39 L 157.28 872.90 L 149.57 863.30 L 142.49 853.59 L 136.02 843.76 L 129.95 833.48 L 124.55 823.14 L 119.80 812.74 L 115.67 802.25 L 112.15 791.67 L 109.66 782.66 L 107.63 773.61 L 106.05 764.53 L 104.92 755.41 L 104.23 746.23 L 104.00 736.99 L 104.23 727.75 L 104.92 718.57 L 106.05 709.45 L 107.63 700.37 L 109.66 691.32 L 112.15 682.31 L 115.67 671.73 L 119.80 661.24 L 124.55 650.84 L 129.95 640.50 L 136.02 630.22 L 142.49 620.39 L 149.57 610.68 L 157.28 601.08 L 165.64 591.59 L 174.67 582.20 L 183.92 573.36 L 193.78 564.70 L 204.26 556.20 L 215.39 547.87 L 227.20 539.71 L 239.13 532.10 L 251.49 524.82 L 264.29 517.85 L 277.54 511.19 L 291.26 504.87 L 305.04 499.03 L 319.16 493.54 L 333.63 488.41 L 348.46 483.64 L 363.66 479.23 L 378.86 475.28 L 394.30 471.72 L 410.00 468.55 L 425.96 465.78 L 442.19 463.40 L 458.37 461.47 L 474.71 459.96 L 491.19 458.87 L 507.83 458.22 L 524.63 457.99 L 541.43 458.22 L 558.07 458.87 L 574.55 459.96 L 590.89 461.47 L 607.07 463.40 L 623.30 465.78 L 639.26 468.55 L 654.96 471.72 L 670.40 475.28 L 685.60 479.23 L 700.80 483.64 L 715.63 488.41 L 730.10 493.54 L 744.22 499.03 L 758.00 504.87 L 771.72 511.19 L 784.97 517.85 L 797.77 524.82 L 810.13 532.10 L 822.06 539.71 L 833.87 547.87 L 845.00 556.20 L 855.48 564.70 L 865.34 573.36 L 874.59 582.20 L 883.62 591.59 L 891.98 601.08 L 899.69 610.68 L 906.77 620.39 L 913.24 630.22 L 919.31 640.50 L 924.71 650.84 L 929.46 661.24 L 933.59 671.73 L 937.11 682.31 L 939.60 691.32 L 941.63 700.37 L 943.21 709.45 L 944.34 718.57 L 945.03 727.75 Z" fill="url(#radialGradient-1)" fill-rule="nonzero" group-id="1,2" id="椭圆形" node-id="51" stroke="none" target-height="558" target-width="841.26" target-x="104" target-y="457.99"></path><g node-id="223"><path d="M 242.40 554.99 L 252.78 554.99 L 252.78 609.66 L 252.58 611.11 L 252.08 612.35 L 251.26 613.43 L 250.21 614.27 L 249.00 614.79 L 247.59 614.99 L 247.59 614.99 L 246.18 614.79 L 244.98 614.27 L 243.92 613.43 L 243.11 612.35 L 242.60 611.11 L 242.40 609.66 Z" fill="#3f78d6" fill-rule="nonzero" group-id="1,2,4" node-id="178" stroke="none" target-height="60" target-width="10.380005" target-x="242.4" target-y="554.99"></path><path d="M 242.40 524.99 L 266.63 588.32 L 242.40 604.99 Z" fill="url(#linearGradient-2)" fill-rule="evenodd" group-id="1,2,4" node-id="180" stroke="none" target-height="80" target-width="24.230011" target-x="242.4" target-y="524.99"></path><path d="M 242.40 524.99 L 221.63 594.99 L 242.40 604.99 Z" fill="url(#linearGradient-3)" fill-rule="evenodd" group-id="1,2,4" node-id="182" stroke="none" target-height="80" target-width="20.769989" target-x="221.63" target-y="524.99"></path></g><g node-id="224"><path d="M 819.63 512.99 L 827.63 512.99 L 827.63 555.81 L 827.31 557.45 L 826.46 558.77 L 825.19 559.66 L 823.63 559.99 L 823.63 559.99 L 822.07 559.66 L 820.80 558.77 L 819.95 557.45 L 819.63 555.81 Z" fill="#3f78d6" fill-rule="nonzero" group-id="1,2,5" node-id="186" stroke="none" target-height="47" target-width="8" target-x="819.63" target-y="512.99"></path><path d="M 819.63 489.99 L 838.63 539.07 L 819.63 551.99 Z" fill="url(#linearGradient-4)" fill-rule="evenodd" group-id="1,2,5" node-id="188" stroke="none" target-height="62" target-width="19" target-x="819.63" target-y="489.99"></path><path d="M 819.63 489.99 L 803.63 544.24 L 819.63 551.99 Z" fill="url(#linearGradient-5)" fill-rule="evenodd" group-id="1,2,5" node-id="190" stroke="none" target-height="62" target-width="16" target-x="803.63" target-y="489.99"></path></g><g node-id="225"><path d="M 293.63 480.99 L 301.63 480.99 L 301.63 521.99 L 301.31 523.56 L 300.46 524.82 L 299.20 525.67 L 297.63 525.99 L 297.63 525.99 L 296.06 525.67 L 294.80 524.82 L 293.95 523.56 L 293.63 521.99 Z" fill="#3f78d6" fill-rule="nonzero" group-id="1,2,6" node-id="194" stroke="none" target-height="45" target-width="8" target-x="293.63" target-y="480.99"></path><path d="M 293.63 457.99 L 311.63 505.49 L 293.63 517.99 Z" fill="url(#linearGradient-6)" fill-rule="evenodd" group-id="1,2,6" node-id="196" stroke="none" target-height="60" target-width="18" target-x="293.63" target-y="457.99"></path><path d="M 293.63 457.99 L 277.63 510.49 L 293.63 517.99 Z" fill="url(#linearGradient-7)" fill-rule="evenodd" group-id="1,2,6" node-id="198" stroke="none" target-height="60" target-width="16" target-x="277.63" target-y="457.99"></path></g></g><g node-id="222"><path d="M 419.83 277.00 L 592.17 277.00 L 595.43 277.30 L 598.41 278.12 L 601.17 279.45 L 603.67 281.23 L 605.79 283.36 L 607.57 285.88 L 608.88 288.66 L 609.70 291.66 L 610.00 294.93 L 610.00 516.07 L 609.70 519.34 L 608.88 522.34 L 607.57 525.12 L 605.79 527.64 L 603.67 529.77 L 601.17 531.55 L 598.41 532.88 L 595.43 533.70 L 592.17 534.00 L 419.83 534.00 L 416.57 533.70 L 413.59 532.88 L 410.83 531.55 L 408.33 529.77 L 406.21 527.64 L 404.43 525.12 L 403.12 522.34 L 402.30 519.34 L 402.00 516.07 L 402.00 294.93 L 402.30 291.66 L 403.12 288.66 L 404.43 285.88 L 406.21 283.36 L 408.33 281.23 L 410.83 279.45 L 413.59 278.12 L 416.57 277.30 L 419.83 277.00 Z" fill="#a2d2fe" fill-rule="evenodd" group-id="1,3" id="路径" node-id="65" stroke="none" target-height="257" target-width="208" target-x="402" target-y="277"></path><path d="M 419.83 277.00 L 592.17 277.00 L 595.43 277.30 L 598.41 278.12 L 601.17 279.45 L 603.67 281.23 L 605.79 283.36 L 607.57 285.88 L 608.88 288.66 L 609.70 291.66 L 610.00 294.93 L 610.00 516.07 L 609.70 519.34 L 608.88 522.34 L 607.57 525.12 L 605.79 527.64 L 603.67 529.77 L 601.17 531.55 L 598.41 532.88 L 595.43 533.70 L 592.17 534.00 L 419.83 534.00 L 416.57 533.70 L 413.59 532.88 L 410.83 531.55 L 408.33 529.77 L 406.21 527.64 L 404.43 525.12 L 403.12 522.34 L 402.30 519.34 L 402.00 516.07 L 402.00 294.93 L 402.30 291.66 L 403.12 288.66 L 404.43 285.88 L 406.21 283.36 L 408.33 281.23 L 410.83 279.45 L 413.59 278.12 L 416.57 277.30 L 419.83 277.00 Z" fill="url(#linearGradient-8)" fill-rule="evenodd" group-id="1,3" id="路径" node-id="66" stroke="none" target-height="257" target-width="208" target-x="402" target-y="277"></path><path d="M 566.05 339.91 L 476.73 339.91 L 475.11 339.68 L 473.72 339.10 L 472.52 338.16 L 471.58 336.96 L 471.00 335.57 L 470.77 333.95 L 471.00 332.34 L 471.58 330.95 L 472.52 329.74 L 473.72 328.81 L 475.11 328.23 L 476.73 328.00 L 566.05 328.00 L 567.66 328.23 L 569.05 328.81 L 570.26 329.74 L 571.19 330.95 L 571.77 332.34 L 572.00 333.95 L 571.77 335.57 L 571.19 336.96 L 570.26 338.16 L 569.05 339.10 L 567.66 339.68 L 566.05 339.91 Z M 476.73 405.40 L 500.55 405.40 L 502.16 405.62 L 503.55 406.20 L 504.76 407.14 L 505.69 408.35 L 506.27 409.73 L 506.50 411.35 L 506.27 412.97 L 505.69 414.35 L 504.76 415.56 L 503.55 416.50 L 502.16 417.07 L 500.55 417.30 L 476.73 417.30 L 475.11 417.07 L 473.72 416.49 L 472.52 415.56 L 471.58 414.35 L 471.00 412.97 L 470.77 411.35 L 471.00 409.73 L 471.58 408.35 L 472.52 407.14 L 473.72 406.20 L 475.11 405.62 L 476.73 405.40 Z M 455.89 456.00 L 446.95 456.00 L 445.34 455.77 L 443.95 455.19 L 442.74 454.26 L 441.81 453.05 L 441.23 451.66 L 441.00 450.05 L 441.23 448.43 L 441.81 447.04 L 442.74 445.84 L 443.95 444.90 L 445.34 444.32 L 446.95 444.09 L 455.89 444.09 L 457.50 444.32 L 458.89 444.90 L 460.10 445.84 L 461.03 447.04 L 461.61 448.43 L 461.84 450.05 L 461.61 451.66 L 461.03 453.05 L 460.10 454.26 L 458.89 455.19 L 457.50 455.77 L 455.89 456.00 Z M 455.89 417.30 L 446.95 417.30 L 445.34 417.07 L 443.95 416.49 L 442.74 415.56 L 441.81 414.35 L 441.23 412.97 L 441.00 411.35 L 441.23 409.73 L 441.81 408.35 L 442.74 407.14 L 443.95 406.20 L 445.34 405.62 L 446.95 405.40 L 455.89 405.40 L 457.50 405.62 L 458.89 406.20 L 460.10 407.14 L 461.03 408.35 L 461.61 409.73 L 461.84 411.35 L 461.61 412.97 L 461.03 414.35 L 460.10 415.56 L 458.89 416.50 L 457.50 417.07 L 455.89 417.30 Z M 455.89 378.60 L 446.95 378.60 L 445.34 378.38 L 443.95 377.80 L 442.74 376.86 L 441.81 375.65 L 441.23 374.27 L 441.00 372.65 L 441.23 371.03 L 441.81 369.65 L 442.74 368.44 L 443.95 367.51 L 445.34 366.93 L 446.95 366.70 L 455.89 366.70 L 457.50 366.93 L 458.89 367.50 L 460.10 368.44 L 461.03 369.65 L 461.61 371.03 L 461.84 372.65 L 461.61 374.27 L 461.03 375.65 L 460.10 376.86 L 458.89 377.80 L 457.50 378.38 L 455.89 378.60 Z M 455.89 339.91 L 446.95 339.91 L 445.34 339.68 L 443.95 339.10 L 442.74 338.16 L 441.81 336.96 L 441.23 335.57 L 441.00 333.95 L 441.23 332.34 L 441.81 330.95 L 442.74 329.74 L 443.95 328.81 L 445.34 328.23 L 446.95 328.00 L 455.89 328.00 L 457.50 328.23 L 458.89 328.81 L 460.10 329.74 L 461.03 330.95 L 461.61 332.34 L 461.84 333.95 L 461.61 335.57 L 461.03 336.96 L 460.10 338.16 L 458.89 339.10 L 457.50 339.68 L 455.89 339.91 Z M 476.73 444.09 L 500.55 444.09 L 502.16 444.32 L 503.55 444.90 L 504.76 445.84 L 505.69 447.04 L 506.27 448.43 L 506.50 450.05 L 506.27 451.66 L 505.69 453.05 L 504.76 454.26 L 503.55 455.19 L 502.16 455.77 L 500.55 456.00 L 476.73 456.00 L 475.11 455.77 L 473.72 455.19 L 472.52 454.26 L 471.58 453.05 L 471.00 451.66 L 470.77 450.05 L 471.00 448.43 L 471.58 447.04 L 472.52 445.84 L 473.72 444.90 L 475.11 444.32 L 476.73 444.09 Z M 470.77 372.65 L 471.00 371.03 L 471.58 369.65 L 472.52 368.44 L 473.72 367.51 L 475.11 366.93 L 476.73 366.70 L 563.07 366.70 L 564.69 366.93 L 566.07 367.51 L 567.28 368.44 L 568.22 369.65 L 568.79 371.03 L 569.02 372.65 L 568.79 374.27 L 568.22 375.65 L 567.28 376.86 L 566.07 377.80 L 564.69 378.38 L 563.07 378.60 L 476.73 378.60 L 475.11 378.38 L 473.72 377.80 L 472.52 376.86 L 471.58 375.65 L 471.00 374.27 L 470.77 372.65 Z" fill="#f9faff" fill-rule="evenodd" group-id="1,3" id="形状" node-id="67" stroke="none" target-height="128" target-width="131" target-x="441" target-y="328"></path><path d="M 566.05 339.91 L 476.73 339.91 L 475.11 339.68 L 473.72 339.10 L 472.52 338.16 L 471.58 336.96 L 471.00 335.57 L 470.77 333.95 L 471.00 332.34 L 471.58 330.95 L 472.52 329.74 L 473.72 328.81 L 475.11 328.23 L 476.73 328.00 L 566.05 328.00 L 567.66 328.23 L 569.05 328.81 L 570.26 329.74 L 571.19 330.95 L 571.77 332.34 L 572.00 333.95 L 571.77 335.57 L 571.19 336.96 L 570.26 338.16 L 569.05 339.10 L 567.66 339.68 L 566.05 339.91 Z M 476.73 405.40 L 500.55 405.40 L 502.16 405.62 L 503.55 406.20 L 504.76 407.14 L 505.69 408.35 L 506.27 409.73 L 506.50 411.35 L 506.27 412.97 L 505.69 414.35 L 504.76 415.56 L 503.55 416.50 L 502.16 417.07 L 500.55 417.30 L 476.73 417.30 L 475.11 417.07 L 473.72 416.49 L 472.52 415.56 L 471.58 414.35 L 471.00 412.97 L 470.77 411.35 L 471.00 409.73 L 471.58 408.35 L 472.52 407.14 L 473.72 406.20 L 475.11 405.62 L 476.73 405.40 Z M 455.89 456.00 L 446.95 456.00 L 445.34 455.77 L 443.95 455.19 L 442.74 454.26 L 441.81 453.05 L 441.23 451.66 L 441.00 450.05 L 441.23 448.43 L 441.81 447.04 L 442.74 445.84 L 443.95 444.90 L 445.34 444.32 L 446.95 444.09 L 455.89 444.09 L 457.50 444.32 L 458.89 444.90 L 460.10 445.84 L 461.03 447.04 L 461.61 448.43 L 461.84 450.05 L 461.61 451.66 L 461.03 453.05 L 460.10 454.26 L 458.89 455.19 L 457.50 455.77 L 455.89 456.00 Z M 455.89 417.30 L 446.95 417.30 L 445.34 417.07 L 443.95 416.49 L 442.74 415.56 L 441.81 414.35 L 441.23 412.97 L 441.00 411.35 L 441.23 409.73 L 441.81 408.35 L 442.74 407.14 L 443.95 406.20 L 445.34 405.62 L 446.95 405.40 L 455.89 405.40 L 457.50 405.62 L 458.89 406.20 L 460.10 407.14 L 461.03 408.35 L 461.61 409.73 L 461.84 411.35 L 461.61 412.97 L 461.03 414.35 L 460.10 415.56 L 458.89 416.50 L 457.50 417.07 L 455.89 417.30 Z M 455.89 378.60 L 446.95 378.60 L 445.34 378.38 L 443.95 377.80 L 442.74 376.86 L 441.81 375.65 L 441.23 374.27 L 441.00 372.65 L 441.23 371.03 L 441.81 369.65 L 442.74 368.44 L 443.95 367.51 L 445.34 366.93 L 446.95 366.70 L 455.89 366.70 L 457.50 366.93 L 458.89 367.50 L 460.10 368.44 L 461.03 369.65 L 461.61 371.03 L 461.84 372.65 L 461.61 374.27 L 461.03 375.65 L 460.10 376.86 L 458.89 377.80 L 457.50 378.38 L 455.89 378.60 Z M 455.89 339.91 L 446.95 339.91 L 445.34 339.68 L 443.95 339.10 L 442.74 338.16 L 441.81 336.96 L 441.23 335.57 L 441.00 333.95 L 441.23 332.34 L 441.81 330.95 L 442.74 329.74 L 443.95 328.81 L 445.34 328.23 L 446.95 328.00 L 455.89 328.00 L 457.50 328.23 L 458.89 328.81 L 460.10 329.74 L 461.03 330.95 L 461.61 332.34 L 461.84 333.95 L 461.61 335.57 L 461.03 336.96 L 460.10 338.16 L 458.89 339.10 L 457.50 339.68 L 455.89 339.91 Z M 476.73 444.09 L 500.55 444.09 L 502.16 444.32 L 503.55 444.90 L 504.76 445.84 L 505.69 447.04 L 506.27 448.43 L 506.50 450.05 L 506.27 451.66 L 505.69 453.05 L 504.76 454.26 L 503.55 455.19 L 502.16 455.77 L 500.55 456.00 L 476.73 456.00 L 475.11 455.77 L 473.72 455.19 L 472.52 454.26 L 471.58 453.05 L 471.00 451.66 L 470.77 450.05 L 471.00 448.43 L 471.58 447.04 L 472.52 445.84 L 473.72 444.90 L 475.11 444.32 L 476.73 444.09 Z M 470.77 372.65 L 471.00 371.03 L 471.58 369.65 L 472.52 368.44 L 473.72 367.51 L 475.11 366.93 L 476.73 366.70 L 563.07 366.70 L 564.69 366.93 L 566.07 367.51 L 567.28 368.44 L 568.22 369.65 L 568.79 371.03 L 569.02 372.65 L 568.79 374.27 L 568.22 375.65 L 567.28 376.86 L 566.07 377.80 L 564.69 378.38 L 563.07 378.60 L 476.73 378.60 L 475.11 378.38 L 473.72 377.80 L 472.52 376.86 L 471.58 375.65 L 471.00 374.27 L 470.77 372.65 Z" fill="#ffffff" fill-rule="nonzero" group-id="1,3" id="形状" node-id="68" stroke="none" target-height="128" target-width="131" target-x="441" target-y="328"></path><path d="M 623.00 468.68 L 635.39 456.00 L 666.00 487.32 L 653.61 500.00 Z" fill="#6a9bed" fill-rule="evenodd" group-id="1,3" id="路径" node-id="69" stroke="none" target-height="44" target-width="43" target-x="623" target-y="456"></path><path d="M 641.45 485.54 L 652.54 474.45 L 654.34 473.08 L 656.33 472.27 L 658.45 472.00 L 660.57 472.27 L 662.57 473.08 L 664.37 474.45 L 703.55 509.20 L 704.92 511.00 L 705.73 512.99 L 706.00 515.11 L 705.73 517.23 L 704.92 519.23 L 703.55 521.03 L 688.02 536.55 L 686.23 537.92 L 684.23 538.73 L 682.11 539.00 L 679.99 538.73 L 678.00 537.92 L 676.20 536.55 L 641.45 497.37 L 640.08 495.57 L 639.27 493.58 L 639.00 491.45 L 639.27 489.33 L 640.08 487.34 L 641.45 485.54 Z" fill="#999999" fill-rule="evenodd" group-id="1,3" id="路径" node-id="70" stroke="none" target-height="67" target-width="67" target-x="639" target-y="472"></path><g node-id="226"><g node-id="228"><path d="M 641.45 485.54 L 652.54 474.45 L 654.34 473.08 L 656.33 472.27 L 658.45 472.00 L 660.57 472.27 L 662.57 473.08 L 664.37 474.45 L 703.55 509.20 L 704.92 511.00 L 705.73 512.99 L 706.00 515.11 L 705.73 517.23 L 704.92 519.23 L 703.55 521.03 L 688.02 536.55 L 686.23 537.92 L 684.23 538.73 L 682.11 539.00 L 679.99 538.73 L 678.00 537.92 L 676.20 536.55 L 641.45 497.37 L 640.08 495.57 L 639.27 493.58 L 639.00 491.45 L 639.27 489.33 L 640.08 487.34 L 641.45 485.54 Z" fill="url(#linearGradient-9)" fill-rule="nonzero" group-id="1,3,7,9" node-id="213" stroke="none" target-height="67" target-width="67" target-x="639" target-y="472"></path></g><path d="M 641.45 485.54 L 652.54 474.45 L 654.34 473.08 L 656.33 472.27 L 658.45 472.00 L 660.57 472.27 L 662.57 473.08 L 664.37 474.45 L 703.55 509.20 L 704.92 511.00 L 705.73 512.99 L 706.00 515.11 L 705.73 517.23 L 704.92 519.23 L 703.55 521.03 L 688.02 536.55 L 686.23 537.92 L 684.23 538.73 L 682.11 539.00 L 679.99 538.73 L 678.00 537.92 L 676.20 536.55 L 641.45 497.37 L 640.08 495.57 L 639.27 493.58 L 639.00 491.45 L 639.27 489.33 L 640.08 487.34 L 641.45 485.54 Z" fill="url(#linearGradient-10)" fill-rule="nonzero" group-id="1,3,7,10" node-id="218" stroke="none" target-height="67" target-width="67" target-x="639" target-y="472"></path></g><path d="M 592.50 488.00 L 586.56 487.75 L 580.83 487.05 L 575.28 485.92 L 569.90 484.35 L 564.63 482.36 L 559.62 480.01 L 554.84 477.29 L 550.27 474.20 L 545.95 470.77 L 541.94 467.06 L 538.23 463.05 L 534.80 458.73 L 531.71 454.16 L 528.99 449.38 L 526.64 444.37 L 524.65 439.10 L 523.08 433.72 L 521.95 428.17 L 521.25 422.44 L 521.00 416.50 L 521.25 410.56 L 521.95 404.83 L 523.08 399.28 L 524.65 393.90 L 526.64 388.63 L 528.99 383.62 L 531.71 378.84 L 534.80 374.27 L 538.23 369.95 L 541.94 365.94 L 545.95 362.23 L 550.27 358.80 L 554.84 355.71 L 559.62 352.99 L 564.63 350.64 L 569.90 348.65 L 575.28 347.08 L 580.83 345.95 L 586.56 345.25 L 592.50 345.00 L 598.44 345.25 L 604.17 345.95 L 609.72 347.08 L 615.10 348.65 L 620.37 350.64 L 625.38 352.99 L 630.16 355.71 L 634.73 358.80 L 639.05 362.23 L 643.06 365.94 L 646.77 369.95 L 650.20 374.27 L 653.29 378.84 L 656.01 383.62 L 658.36 388.63 L 660.36 393.90 L 661.92 399.28 L 663.05 404.83 L 663.75 410.56 L 664.00 416.50 L 663.75 422.44 L 663.05 428.17 L 661.92 433.72 L 660.35 439.10 L 658.36 444.37 L 656.01 449.38 L 653.29 454.16 L 650.20 458.73 L 646.77 463.05 L 643.06 467.06 L 639.05 470.77 L 634.73 474.20 L 630.16 477.29 L 625.38 480.01 L 620.37 482.36 L 615.10 484.35 L 609.72 485.92 L 604.17 487.05 L 598.44 487.75 L 592.50 488.00 Z M 592.50 359.90 L 587.24 360.18 L 582.22 360.94 L 577.41 362.17 L 572.79 363.88 L 568.33 366.03 L 564.17 368.55 L 560.30 371.45 L 556.69 374.73 L 553.41 378.34 L 550.51 382.21 L 547.99 386.37 L 545.83 390.83 L 544.13 395.45 L 542.90 400.26 L 542.14 405.28 L 541.85 410.54 L 542.14 415.80 L 542.90 420.82 L 544.13 425.63 L 545.83 430.26 L 547.99 434.72 L 550.51 438.87 L 553.41 442.75 L 556.69 446.35 L 560.30 449.63 L 564.17 452.53 L 568.33 455.05 L 572.79 457.21 L 577.41 458.91 L 582.22 460.14 L 587.24 460.91 L 592.50 461.19 L 597.76 460.91 L 602.78 460.14 L 607.59 458.91 L 612.21 457.21 L 616.67 455.05 L 620.83 452.53 L 624.70 449.63 L 628.31 446.35 L 631.59 442.75 L 634.49 438.87 L 637.01 434.72 L 639.17 430.26 L 640.87 425.63 L 642.10 420.82 L 642.86 415.80 L 643.15 410.54 L 642.86 405.28 L 642.10 400.26 L 640.87 395.45 L 639.17 390.83 L 637.01 386.37 L 634.49 382.21 L 631.59 378.34 L 628.31 374.73 L 624.70 371.45 L 620.83 368.55 L 616.67 366.03 L 612.21 363.88 L 607.59 362.17 L 602.78 360.94 L 597.76 360.18 L 592.50 359.90 Z" fill="#e5e5e5" fill-rule="evenodd" group-id="1,3" id="形状" node-id="74" stroke="none" target-height="143" target-width="143" target-x="521" target-y="345"></path><path d="M 592.50 488.00 L 586.56 487.75 L 580.83 487.05 L 575.28 485.92 L 569.90 484.35 L 564.63 482.36 L 559.62 480.01 L 554.84 477.29 L 550.27 474.20 L 545.95 470.77 L 541.94 467.06 L 538.23 463.05 L 534.80 458.73 L 531.71 454.16 L 528.99 449.38 L 526.64 444.37 L 524.65 439.10 L 523.08 433.72 L 521.95 428.17 L 521.25 422.44 L 521.00 416.50 L 521.25 410.56 L 521.95 404.83 L 523.08 399.28 L 524.65 393.90 L 526.64 388.63 L 528.99 383.62 L 531.71 378.84 L 534.80 374.27 L 538.23 369.95 L 541.94 365.94 L 545.95 362.23 L 550.27 358.80 L 554.84 355.71 L 559.62 352.99 L 564.63 350.64 L 569.90 348.65 L 575.28 347.08 L 580.83 345.95 L 586.56 345.25 L 592.50 345.00 L 598.44 345.25 L 604.17 345.95 L 609.72 347.08 L 615.10 348.65 L 620.37 350.64 L 625.38 352.99 L 630.16 355.71 L 634.73 358.80 L 639.05 362.23 L 643.06 365.94 L 646.77 369.95 L 650.20 374.27 L 653.29 378.84 L 656.01 383.62 L 658.36 388.63 L 660.36 393.90 L 661.92 399.28 L 663.05 404.83 L 663.75 410.56 L 664.00 416.50 L 663.75 422.44 L 663.05 428.17 L 661.92 433.72 L 660.35 439.10 L 658.36 444.37 L 656.01 449.38 L 653.29 454.16 L 650.20 458.73 L 646.77 463.05 L 643.06 467.06 L 639.05 470.77 L 634.73 474.20 L 630.16 477.29 L 625.38 480.01 L 620.37 482.36 L 615.10 484.35 L 609.72 485.92 L 604.17 487.05 L 598.44 487.75 L 592.50 488.00 Z M 592.50 359.90 L 587.24 360.18 L 582.22 360.94 L 577.41 362.17 L 572.79 363.88 L 568.33 366.03 L 564.17 368.55 L 560.30 371.45 L 556.69 374.73 L 553.41 378.34 L 550.51 382.21 L 547.99 386.37 L 545.83 390.83 L 544.13 395.45 L 542.90 400.26 L 542.14 405.28 L 541.85 410.54 L 542.14 415.80 L 542.90 420.82 L 544.13 425.63 L 545.83 430.26 L 547.99 434.72 L 550.51 438.87 L 553.41 442.75 L 556.69 446.35 L 560.30 449.63 L 564.17 452.53 L 568.33 455.05 L 572.79 457.21 L 577.41 458.91 L 582.22 460.14 L 587.24 460.91 L 592.50 461.19 L 597.76 460.91 L 602.78 460.14 L 607.59 458.91 L 612.21 457.21 L 616.67 455.05 L 620.83 452.53 L 624.70 449.63 L 628.31 446.35 L 631.59 442.75 L 634.49 438.87 L 637.01 434.72 L 639.17 430.26 L 640.87 425.63 L 642.10 420.82 L 642.86 415.80 L 643.15 410.54 L 642.86 405.28 L 642.10 400.26 L 640.87 395.45 L 639.17 390.83 L 637.01 386.37 L 634.49 382.21 L 631.59 378.34 L 628.31 374.73 L 624.70 371.45 L 620.83 368.55 L 616.67 366.03 L 612.21 363.88 L 607.59 362.17 L 602.78 360.94 L 597.76 360.18 L 592.50 359.90 Z" fill="url(#linearGradient-12)" fill-rule="nonzero" group-id="1,3" id="形状" node-id="75" stroke="none" target-height="143" target-width="143" target-x="521" target-y="345"></path><path d="M 592.50 483.00 L 586.56 482.75 L 580.83 482.05 L 575.28 480.92 L 569.90 479.35 L 564.63 477.36 L 559.62 475.01 L 554.84 472.29 L 550.27 469.20 L 545.95 465.77 L 541.94 462.06 L 538.23 458.05 L 534.80 453.73 L 531.71 449.16 L 528.99 444.38 L 526.64 439.37 L 524.65 434.10 L 523.08 428.72 L 521.95 423.17 L 521.25 417.44 L 521.00 411.50 L 521.25 405.56 L 521.95 399.83 L 523.08 394.28 L 524.65 388.90 L 526.64 383.63 L 528.99 378.62 L 531.71 373.84 L 534.80 369.27 L 538.23 364.95 L 541.94 360.94 L 545.95 357.23 L 550.27 353.80 L 554.84 350.71 L 559.62 347.99 L 564.63 345.64 L 569.90 343.65 L 575.28 342.08 L 580.83 340.95 L 586.56 340.25 L 592.50 340.00 L 598.44 340.25 L 604.17 340.95 L 609.72 342.08 L 615.10 343.65 L 620.37 345.64 L 625.38 347.99 L 630.16 350.71 L 634.73 353.80 L 639.05 357.23 L 643.06 360.94 L 646.77 364.95 L 650.20 369.27 L 653.29 373.84 L 656.01 378.62 L 658.36 383.63 L 660.36 388.90 L 661.92 394.28 L 663.05 399.83 L 663.75 405.56 L 664.00 411.50 L 663.75 417.44 L 663.05 423.17 L 661.92 428.72 L 660.35 434.10 L 658.36 439.37 L 656.01 444.38 L 653.29 449.16 L 650.20 453.73 L 646.77 458.05 L 643.06 462.06 L 639.05 465.77 L 634.73 469.20 L 630.16 472.29 L 625.38 475.01 L 620.37 477.36 L 615.10 479.35 L 609.72 480.92 L 604.17 482.05 L 598.44 482.75 L 592.50 483.00 Z M 592.50 360.85 L 587.24 361.14 L 582.22 361.90 L 577.41 363.13 L 572.79 364.83 L 568.33 366.99 L 564.17 369.51 L 560.30 372.41 L 556.69 375.69 L 553.41 379.30 L 550.51 383.17 L 547.99 387.33 L 545.83 391.79 L 544.13 396.41 L 542.90 401.22 L 542.14 406.24 L 541.85 411.50 L 542.14 416.76 L 542.90 421.78 L 544.13 426.59 L 545.83 431.21 L 547.99 435.67 L 550.51 439.83 L 553.41 443.70 L 556.69 447.31 L 560.30 450.59 L 564.17 453.49 L 568.33 456.01 L 572.79 458.17 L 577.41 459.87 L 582.22 461.10 L 587.24 461.86 L 592.50 462.15 L 597.76 461.86 L 602.78 461.10 L 607.59 459.87 L 612.21 458.17 L 616.67 456.01 L 620.83 453.49 L 624.70 450.59 L 628.31 447.31 L 631.59 443.70 L 634.49 439.83 L 637.01 435.67 L 639.17 431.21 L 640.87 426.59 L 642.10 421.78 L 642.86 416.76 L 643.15 411.50 L 642.86 406.24 L 642.10 401.22 L 640.87 396.41 L 639.17 391.79 L 637.01 387.33 L 634.49 383.17 L 631.59 379.30 L 628.31 375.69 L 624.70 372.41 L 620.83 369.51 L 616.67 366.99 L 612.21 364.83 L 607.59 363.13 L 602.78 361.90 L 597.76 361.14 L 592.50 360.85 Z" fill="#e5e5e5" fill-rule="evenodd" group-id="1,3" id="形状" node-id="76" stroke="none" target-height="143" target-width="143" target-x="521" target-y="340"></path><path d="M 592.50 483.00 L 586.56 482.75 L 580.83 482.05 L 575.28 480.92 L 569.90 479.35 L 564.63 477.36 L 559.62 475.01 L 554.84 472.29 L 550.27 469.20 L 545.95 465.77 L 541.94 462.06 L 538.23 458.05 L 534.80 453.73 L 531.71 449.16 L 528.99 444.38 L 526.64 439.37 L 524.65 434.10 L 523.08 428.72 L 521.95 423.17 L 521.25 417.44 L 521.00 411.50 L 521.25 405.56 L 521.95 399.83 L 523.08 394.28 L 524.65 388.90 L 526.64 383.63 L 528.99 378.62 L 531.71 373.84 L 534.80 369.27 L 538.23 364.95 L 541.94 360.94 L 545.95 357.23 L 550.27 353.80 L 554.84 350.71 L 559.62 347.99 L 564.63 345.64 L 569.90 343.65 L 575.28 342.08 L 580.83 340.95 L 586.56 340.25 L 592.50 340.00 L 598.44 340.25 L 604.17 340.95 L 609.72 342.08 L 615.10 343.65 L 620.37 345.64 L 625.38 347.99 L 630.16 350.71 L 634.73 353.80 L 639.05 357.23 L 643.06 360.94 L 646.77 364.95 L 650.20 369.27 L 653.29 373.84 L 656.01 378.62 L 658.36 383.63 L 660.36 388.90 L 661.92 394.28 L 663.05 399.83 L 663.75 405.56 L 664.00 411.50 L 663.75 417.44 L 663.05 423.17 L 661.92 428.72 L 660.35 434.10 L 658.36 439.37 L 656.01 444.38 L 653.29 449.16 L 650.20 453.73 L 646.77 458.05 L 643.06 462.06 L 639.05 465.77 L 634.73 469.20 L 630.16 472.29 L 625.38 475.01 L 620.37 477.36 L 615.10 479.35 L 609.72 480.92 L 604.17 482.05 L 598.44 482.75 L 592.50 483.00 Z M 592.50 360.85 L 587.24 361.14 L 582.22 361.90 L 577.41 363.13 L 572.79 364.83 L 568.33 366.99 L 564.17 369.51 L 560.30 372.41 L 556.69 375.69 L 553.41 379.30 L 550.51 383.17 L 547.99 387.33 L 545.83 391.79 L 544.13 396.41 L 542.90 401.22 L 542.14 406.24 L 541.85 411.50 L 542.14 416.76 L 542.90 421.78 L 544.13 426.59 L 545.83 431.21 L 547.99 435.67 L 550.51 439.83 L 553.41 443.70 L 556.69 447.31 L 560.30 450.59 L 564.17 453.49 L 568.33 456.01 L 572.79 458.17 L 577.41 459.87 L 582.22 461.10 L 587.24 461.86 L 592.50 462.15 L 597.76 461.86 L 602.78 461.10 L 607.59 459.87 L 612.21 458.17 L 616.67 456.01 L 620.83 453.49 L 624.70 450.59 L 628.31 447.31 L 631.59 443.70 L 634.49 439.83 L 637.01 435.67 L 639.17 431.21 L 640.87 426.59 L 642.10 421.78 L 642.86 416.76 L 643.15 411.50 L 642.86 406.24 L 642.10 401.22 L 640.87 396.41 L 639.17 391.79 L 637.01 387.33 L 634.49 383.17 L 631.59 379.30 L 628.31 375.69 L 624.70 372.41 L 620.83 369.51 L 616.67 366.99 L 612.21 364.83 L 607.59 363.13 L 602.78 361.90 L 597.76 361.14 L 592.50 360.85 Z" fill="url(#linearGradient-13)" fill-rule="evenodd" group-id="1,3" id="形状" node-id="77" stroke="none" target-height="143" target-width="143" target-x="521" target-y="340"></path><path d="M 595.79 342.99 L 589.83 343.24 L 584.08 343.94 L 578.50 345.08 L 573.10 346.65 L 567.81 348.65 L 562.77 351.02 L 557.97 353.75 L 553.39 356.85 L 549.05 360.29 L 545.02 364.02 L 541.29 368.05 L 537.85 372.39 L 534.75 376.97 L 532.02 381.77 L 529.65 386.81 L 527.65 392.10 L 526.08 397.50 L 524.94 403.08 L 524.24 408.83 L 523.99 414.79 L 524.27 421.13 L 525.07 427.25 L 526.38 433.17 L 528.19 438.95 L 530.44 444.48 L 533.13 449.76 L 536.24 454.81 L 539.73 459.55 L 543.60 464.00 L 539.16 459.44 L 535.16 454.52 L 531.57 449.22 L 528.46 443.63 L 525.87 437.76 L 523.77 431.58 L 522.26 425.23 L 521.33 418.65 L 521.00 411.80 L 521.25 405.84 L 521.95 400.08 L 523.09 394.51 L 524.66 389.11 L 526.66 383.82 L 529.03 378.78 L 531.75 373.98 L 534.85 369.40 L 538.30 365.06 L 542.03 361.03 L 546.06 357.30 L 550.40 353.85 L 554.98 350.75 L 559.78 348.03 L 564.82 345.66 L 570.11 343.66 L 575.51 342.09 L 581.08 340.95 L 586.84 340.25 L 592.80 340.00 L 599.65 340.33 L 606.23 341.26 L 612.58 342.77 L 618.76 344.87 L 624.63 347.46 L 630.22 350.57 L 635.52 354.16 L 640.43 358.16 L 645.00 362.60 L 640.55 358.73 L 635.81 355.24 L 630.76 352.13 L 625.48 349.44 L 619.95 347.19 L 614.17 345.38 L 608.25 344.07 L 602.13 343.27 L 595.79 342.99 Z" fill="#e6ecff" fill-opacity="0.8" fill-rule="evenodd" group-id="1,3,8" id="路径" node-id="78" stroke="none" target-height="124" target-width="124" target-x="521" target-y="340"></path><path d="M 589.81 480.03 L 595.72 479.78 L 601.43 479.09 L 606.96 477.96 L 612.32 476.40 L 617.57 474.42 L 622.56 472.07 L 627.33 469.37 L 631.87 466.29 L 636.18 462.87 L 640.17 459.17 L 643.87 455.18 L 647.29 450.87 L 650.37 446.33 L 653.07 441.56 L 655.42 436.57 L 657.40 431.32 L 658.96 425.96 L 660.09 420.43 L 660.78 414.72 L 661.03 408.81 L 660.75 402.52 L 659.96 396.45 L 658.66 390.58 L 656.87 384.84 L 654.64 379.36 L 651.97 374.12 L 648.88 369.11 L 645.42 364.41 L 641.58 360.00 L 645.98 364.53 L 649.96 369.41 L 653.52 374.66 L 656.60 380.20 L 659.17 386.03 L 661.25 392.16 L 662.75 398.46 L 663.67 404.99 L 664.00 411.77 L 663.75 417.69 L 663.06 423.40 L 661.93 428.93 L 660.37 434.29 L 658.38 439.53 L 656.04 444.53 L 653.33 449.29 L 650.26 453.84 L 646.84 458.14 L 643.14 462.14 L 639.14 465.84 L 634.84 469.26 L 630.29 472.33 L 625.53 475.04 L 620.53 477.38 L 615.29 479.37 L 609.93 480.93 L 604.40 482.06 L 598.69 482.75 L 592.77 483.00 L 585.99 482.67 L 579.46 481.75 L 573.16 480.25 L 567.03 478.17 L 561.20 475.60 L 555.66 472.52 L 550.41 468.96 L 545.53 464.98 L 541.00 460.58 L 545.41 464.42 L 550.11 467.88 L 555.12 470.97 L 560.36 473.64 L 565.84 475.87 L 571.58 477.66 L 577.45 478.96 L 583.52 479.75 L 589.81 480.03 Z" fill="#f6f8ff" fill-rule="evenodd" group-id="1,3" id="路径" node-id="79" stroke="none" target-height="123" target-width="123" target-x="541" target-y="360"></path><path d="M 592.50 361.00 L 597.74 361.28 L 602.75 362.04 L 607.54 363.27 L 612.16 364.97 L 616.60 367.12 L 620.75 369.63 L 624.61 372.52 L 628.21 375.79 L 631.48 379.39 L 634.37 383.25 L 636.88 387.40 L 639.03 391.84 L 640.73 396.46 L 641.96 401.25 L 642.72 406.26 L 643.00 411.50 L 642.72 416.74 L 641.96 421.75 L 640.73 426.54 L 639.03 431.16 L 636.88 435.60 L 634.37 439.75 L 631.48 443.61 L 628.21 447.21 L 624.61 450.48 L 620.75 453.37 L 616.60 455.88 L 612.16 458.03 L 607.54 459.73 L 602.75 460.96 L 597.74 461.72 L 592.50 462.00 L 587.26 461.72 L 582.25 460.96 L 577.46 459.73 L 572.84 458.03 L 568.40 455.88 L 564.25 453.37 L 560.39 450.48 L 556.79 447.21 L 553.52 443.61 L 550.63 439.75 L 548.12 435.60 L 545.97 431.16 L 544.27 426.54 L 543.04 421.75 L 542.28 416.74 L 542.00 411.50 L 542.28 406.26 L 543.04 401.25 L 544.27 396.46 L 545.97 391.84 L 548.12 387.40 L 550.63 383.25 L 553.52 379.39 L 556.79 375.79 L 560.39 372.52 L 564.25 369.63 L 568.40 367.12 L 572.84 364.97 L 577.46 363.27 L 582.25 362.04 L 587.26 361.28 L 592.50 361.00 Z" fill="#e5e5e5" fill-opacity="0" fill-rule="evenodd" group-id="1,3" id="路径" node-id="80" stroke="none" target-height="101" target-width="101" target-x="542" target-y="361"></path><path d="M 592.50 361.00 L 597.74 361.28 L 602.75 362.04 L 607.54 363.27 L 612.16 364.97 L 616.60 367.12 L 620.75 369.63 L 624.61 372.52 L 628.21 375.79 L 631.48 379.39 L 634.37 383.25 L 636.88 387.40 L 639.03 391.84 L 640.73 396.46 L 641.96 401.25 L 642.72 406.26 L 643.00 411.50 L 642.72 416.74 L 641.96 421.75 L 640.73 426.54 L 639.03 431.16 L 636.88 435.60 L 634.37 439.75 L 631.48 443.61 L 628.21 447.21 L 624.61 450.48 L 620.75 453.37 L 616.60 455.88 L 612.16 458.03 L 607.54 459.73 L 602.75 460.96 L 597.74 461.72 L 592.50 462.00 L 587.26 461.72 L 582.25 460.96 L 577.46 459.73 L 572.84 458.03 L 568.40 455.88 L 564.25 453.37 L 560.39 450.48 L 556.79 447.21 L 553.52 443.61 L 550.63 439.75 L 548.12 435.60 L 545.97 431.16 L 544.27 426.54 L 543.04 421.75 L 542.28 416.74 L 542.00 411.50 L 542.28 406.26 L 543.04 401.25 L 544.27 396.46 L 545.97 391.84 L 548.12 387.40 L 550.63 383.25 L 553.52 379.39 L 556.79 375.79 L 560.39 372.52 L 564.25 369.63 L 568.40 367.12 L 572.84 364.97 L 577.46 363.27 L 582.25 362.04 L 587.26 361.28 L 592.50 361.00 Z" fill="url(#linearGradient-14)" fill-rule="nonzero" group-id="1,3" id="路径" node-id="81" stroke="none" target-height="101" target-width="101" target-x="542" target-y="361"></path></g><path d="M 720.63 299.49 L 720.29 304.37 L 719.36 308.96 L 717.84 313.31 L 715.77 317.43 L 713.24 321.18 L 710.23 324.59 L 706.82 327.60 L 703.07 330.13 L 698.95 332.20 L 694.60 333.72 L 690.01 334.65 L 685.13 334.99 L 680.25 334.65 L 675.66 333.72 L 671.31 332.20 L 667.19 330.13 L 663.44 327.60 L 660.03 324.59 L 657.02 321.18 L 654.49 317.43 L 652.42 313.31 L 650.90 308.96 L 649.97 304.37 L 649.63 299.49 L 649.97 294.61 L 650.90 290.02 L 652.42 285.67 L 654.49 281.55 L 657.02 277.80 L 660.03 274.39 L 663.44 271.38 L 667.19 268.85 L 671.31 266.78 L 675.66 265.26 L 680.25 264.33 L 685.13 263.99 L 690.01 264.33 L 694.60 265.26 L 698.95 266.78 L 703.07 268.85 L 706.82 271.38 L 710.23 274.39 L 713.24 277.80 L 715.77 281.55 L 717.84 285.67 L 719.36 290.02 L 720.29 294.61 Z" fill="url(#radialGradient-15)" fill-rule="nonzero" group-id="1" id="椭圆形" node-id="82" stroke="none" target-height="71" target-width="71" target-x="649.63" target-y="263.99"></path><path d="M 378.63 438.49 L 378.30 442.05 L 377.41 445.31 L 375.97 448.33 L 374.03 451.07 L 371.71 453.39 L 368.97 455.33 L 365.95 456.77 L 362.69 457.66 L 359.13 457.99 L 355.57 457.66 L 352.31 456.77 L 349.29 455.33 L 346.55 453.39 L 344.23 451.07 L 342.29 448.33 L 340.85 445.31 L 339.96 442.05 L 339.63 438.49 L 339.96 434.93 L 340.85 431.67 L 342.29 428.65 L 344.23 425.91 L 346.55 423.59 L 349.29 421.65 L 352.31 420.21 L 355.57 419.32 L 359.13 418.99 L 362.69 419.32 L 365.95 420.21 L 368.97 421.65 L 371.71 423.59 L 374.03 425.91 L 375.97 428.65 L 377.41 431.67 L 378.30 434.93 Z" fill="url(#radialGradient-15)" fill-opacity="0.56253344" fill-rule="nonzero" group-id="1" id="椭圆形备份" node-id="83" stroke="none" target-height="39" target-width="39" target-x="339.63" target-y="418.99"></path></g></svg>